# File created by Blade
# Date/Time:  Tue Jan 27 18:09:18 2015
#---------------------------------------------------------
:version 1.10
:name HOM
:units
  mass 1.0
  length 1.000000
  angle deg
:documentation
     Acclaim Skeleton File
:root
   axis xyz
   order TX TY TZ RX RY RZ
   position 0.000000 0.000000 0.000000
   orientation 0 0 0
:bonedata
   begin
      id 1
      name Spine_dum
      direction 0.000000 1.000000 0.000000
      length 5.195262
      axis 0.0 0.0 0.0 xyz
   end
   begin
      id 2
      name LeftUpLeg_dum
      direction 1.000000 0.000000 0.000000
      length 3.351363
      axis 0.0 0.0 0.0 xyz
   end
   begin
      id 3
      name RightUpLeg_dum
      direction -1.000000 0.000000 0.000000
      length 3.351363
      axis 0.0 0.0 0.0 xyz
   end
   begin
      id 4
      name Spine
      direction 0.000000 1.000000 0.000000
      length 0.000000
      axis 0.0 0.0 0.0 xyz
      dof rx ry rz
   end
   begin
      id 5
      name Spine_dum1
      direction 0.000000 1.000000 0.000000
      length 15.653875
      axis 0.0 0.0 0.0 xyz
   end
   begin
      id 6
      name Spine_dum2
      direction 0.000000 1.000000 0.000000
      length 10.329768
      axis 0.0 0.0 0.0 xyz
   end
   begin
      id 7
      name Spine_dum3
      direction 0.000000 1.000000 0.000000
      length 10.329768
      axis 0.0 0.0 0.0 xyz
   end
   begin
      id 8
      name Head
      direction 0.000000 1.000000 0.000000
      length 4.527550
      axis 0.0 0.0 0.0 xyz
      dof rx ry rz
   end
   begin
      id 9
      name LeftShoulder
      direction 1.000000 0.000000 0.000000
      length 6.996006
      axis 0.0 0.0 -90.0 xyz
      dof rx ry rz
   end
   begin
      id 10
      name LeftArm
      direction 1.000000 0.000000 0.000000
      length 10.209302
      axis 0.0 0.0 -90.0 xyz
      dof rx ry rz
   end
   begin
      id 11
      name LeftForeArm
      direction 1.000000 0.000000 0.000000
      length 8.563163
      axis 0.0 0.0 -90.0 xyz
      dof ry rz rx
   end
   begin
      id 12
      name LeftHand
      direction 0.000000 0.000000 0.000000
      length 0.000000
      axis 0.0 0.0 -90.0 xyz
      dof rx ry rz
   end
   begin
      id 13
      name LeftHand_dum1
      direction 0.000000 0.000000 0.000000
      length 0.000000
      axis 0.0 0.0 -90.0 xyz
   end
   begin
      id 14
      name LeftHand_dum2
      direction 1.000000 0.000000 0.000000
      length 3.937000
      axis 0.0 0.0 -90.0 xyz
   end
   begin
      id 15
      name LeftHandThumb1
      direction 0.000000 0.000000 1.000000
      length 3.937000
      axis 0.0 0.0 -90.0 xyz
      dof rx rz ry
   end
   begin
      id 16
      name RightShoulder
      direction -1.000000 0.000000 0.000000
      length 6.996006
      axis 0.0 0.0 90.0 xyz
      dof rx ry rz
   end
   begin
      id 17
      name RightArm
      direction -1.000000 0.000000 0.000000
      length 10.209302
      axis 0.0 0.0 90.0 xyz
      dof rx ry rz
   end
   begin
      id 18
      name RightForeArm
      direction -1.000000 0.000000 0.000000
      length 8.563163
      axis 0.0 0.0 90.0 xyz
      dof ry rz rx
   end
   begin
      id 19
      name RightHand
      direction 0.000000 0.000000 0.000000
      length 0.000000
      axis 0.0 0.0 90.0 xyz
      dof rx ry rz
   end
   begin
      id 20
      name RightHand_dum1
      direction 0.000000 0.000000 0.000000
      length 0.000000
      axis 0.0 0.0 90.0 xyz
   end
   begin
      id 21
      name RightHand_dum2
      direction -1.000000 0.000000 0.000000
      length 3.937000
      axis 0.0 0.0 90.0 xyz
   end
   begin
      id 22
      name RightHandThumb1
      direction 0.000000 0.000000 1.000000
      length 3.937000
      axis 0.0 0.0 90.0 xyz
      dof rx rz ry
   end
   begin
      id 23
      name LeftUpLeg
      direction 0.000000 -1.000000 0.000000
      length 16.346831
      axis 0.0 0.0 0.0 xyz
      dof rx ry rz
   end
   begin
      id 24
      name LeftLeg
      direction 0.000000 -1.000000 0.000000
      length 13.959795
      axis 0.0 0.0 0.0 xyz
      dof rx ry rz
   end
   begin
      id 25
      name LeftFoot
      direction 0.000000 -0.258819 0.965926
      length 5.165550
      axis 15.0 0.0 0.0 xyz
      dof rx ry rz
   end
   begin
      id 26
      name LeftToeBase
      direction 0.000000 0.000000 1.000000
      length 2.952750
      axis 0.0 0.0 0.0 xyz
      dof rx ry rz
   end
   begin
      id 27
      name RightUpLeg
      direction 0.000000 -1.000000 0.000000
      length 16.346831
      axis 0.0 0.0 0.0 xyz
      dof rx ry rz
   end
   begin
      id 28
      name RightLeg
      direction 0.000000 -1.000000 0.000000
      length 13.959795
      axis 0.0 0.0 0.0 xyz
      dof rx ry rz
   end
   begin
      id 29
      name RightFoot
      direction 0.000000 -0.258819 0.965926
      length 5.165550
      axis 15.0 0.0 0.0 xyz
      dof rx ry rz
   end
   begin
      id 30
      name RightToeBase
      direction 0.000000 0.000000 1.000000
      length 2.952750
      axis 0.0 0.0 0.0 xyz
      dof rx ry rz
   end
:hierarchy
   begin
      root Spine_dum LeftUpLeg_dum RightUpLeg_dum
      Spine_dum Spine
      LeftUpLeg_dum LeftUpLeg
      RightUpLeg_dum RightUpLeg
      Spine Spine_dum1 Spine_dum2 Spine_dum3
      Spine_dum1 Head
      Spine_dum2 LeftShoulder
      Spine_dum3 RightShoulder
      LeftShoulder LeftArm
      LeftArm LeftForeArm
      LeftForeArm LeftHand
      LeftHand LeftHand_dum1 LeftHand_dum2
      LeftHand_dum1 LeftHandThumb1
      RightShoulder RightArm
      RightArm RightForeArm
      RightForeArm RightHand
      RightHand RightHand_dum1 RightHand_dum2
      RightHand_dum1 RightHandThumb1
      LeftUpLeg LeftLeg
      LeftLeg LeftFoot
      LeftFoot LeftToeBase
      RightUpLeg RightLeg
      RightLeg RightFoot
      RightFoot RightToeBase
   end

# File created by Blade
# Date/Time:  Tue Jan 27 18:09:10 2015
# Frame Rate: 120.000 fps
#------------------------------------------------------
:FULLY-SPECIFIED
:DEGREES
642
root -1.441258 31.834288 -6.148320 6.970134 25.368442 5.950608
Spine -7.081952 4.785752 -2.850743
Head -5.416480 -13.421531 3.413047
LeftShoulder -6.993541 15.297798 5.678185
LeftArm 27.732526 41.829361 -69.283054
LeftForeArm -2.431620 -0.000000 12.958793
LeftHand -11.250566 0.000000 -4.545203
LeftHandThumb1 -26.253704 0.000000 33.147579
RightShoulder 10.071727 43.324763 -34.471520
RightArm 45.614931 7.004654 110.946976
RightForeArm 39.290734 -0.000000 50.413744
RightHand -9.528046 -0.000000 8.025039
RightHandThumb1 -24.326973 -0.000000 -32.862282
LeftUpLeg -3.375300 -11.869450 -1.343589
LeftLeg 1.983935 -0.000000 -0.000000
LeftFoot -13.575858 10.354939 -23.792390
LeftToeBase 8.479251 -0.000000 -0.000000
RightUpLeg 5.210012 -15.483556 -4.277157
RightLeg -3.743383 -0.000000 0.000000
RightFoot -18.961730 -20.888741 12.130296
RightToeBase 5.570771 -0.000000 -0.000000
643
root -1.435697 31.834417 -6.146521 6.989124 25.394171 5.968212
Spine -7.079453 4.818791 -2.842808
Head -5.429344 -13.436607 3.367837
LeftShoulder -7.017120 15.309242 5.663712
LeftArm 27.904840 41.873522 -69.140529
LeftForeArm -2.116104 0.000000 13.047646
LeftHand -11.201260 -0.000000 -4.557974
LeftHandThumb1 -26.253704 0.000000 33.147579
RightShoulder 10.171785 43.094108 -34.380585
RightArm 45.816588 7.517120 111.391521
RightForeArm 39.269943 -0.000000 52.786609
RightHand -9.287527 -0.000000 7.875359
RightHandThumb1 -24.326973 -0.000000 -32.862282
LeftUpLeg -3.391607 -11.899736 -1.364238
LeftLeg 2.006172 -0.000000 -0.000000
LeftFoot -13.588339 10.364396 -23.798088
LeftToeBase 8.494664 -0.000000 -0.000000
RightUpLeg 5.199313 -15.508879 -4.297547
RightLeg -3.719696 -0.000000 0.000000
RightFoot -18.967006 -20.894224 12.126357
RightToeBase 5.530601 -0.000000 -0.000000
644
root -1.428317 31.834736 -6.141338 6.998705 25.429083 5.990180
Spine -7.076974 4.840661 -2.841937
Head -5.420442 -13.440626 3.307275
LeftShoulder -7.043982 15.293447 5.642213
LeftArm 28.023626 41.947504 -69.014240
LeftForeArm -1.835323 -0.000000 13.133327
LeftHand -11.102040 -0.000000 -4.514073
LeftHandThumb1 -26.253704 0.000000 33.147579
RightShoulder 10.201890 42.698178 -34.366203
RightArm 46.172396 7.897446 111.796692
RightForeArm 39.252162 -0.000000 55.103911
RightHand -8.831957 0.000000 8.240320
RightHandThumb1 -24.326973 -0.000000 -32.862282
LeftUpLeg -3.389652 -11.931769 -1.389976
LeftLeg 2.023424 -0.000000 -0.000000
LeftFoot -13.587515 10.367402 -23.774314
LeftToeBase 8.486141 -0.000000 -0.000000
RightUpLeg 5.220609 -15.539815 -4.327509
RightLeg -3.716259 -0.000000 0.000000
RightFoot -18.986861 -20.880704 12.167062
RightToeBase 5.622665 -0.000000 -0.000000
645
root -1.422827 31.834860 -6.137326 7.014917 25.480479 6.010414
Spine -7.069031 4.870333 -2.842726
Head -5.472143 -13.451742 3.267911
LeftShoulder -7.056193 15.289329 5.618153
LeftArm 28.150903 42.003821 -68.879426
LeftForeArm -1.557867 -0.000000 13.236714
LeftHand -11.054990 -0.000000 -4.327371
LeftHandThumb1 -26.253704 0.000000 33.147579
RightShoulder 10.202549 42.528979 -34.353916
RightArm 46.317350 8.340442 112.183897
RightForeArm 39.377181 0.000000 57.414882
RightHand -8.507963 -0.000000 8.103286
RightHandThumb1 -24.326973 -0.000000 -32.862282
LeftUpLeg -3.407534 -11.954808 -1.410349
LeftLeg 2.058954 -0.000000 -0.000000
LeftFoot -13.588618 10.341542 -23.772290
LeftToeBase 8.458220 -0.000000 -0.000000
RightUpLeg 5.238315 -15.565491 -4.346667
RightLeg -3.725921 -0.000000 0.000000
RightFoot -18.995497 -20.906748 12.161034
RightToeBase 5.557342 -0.000000 -0.000000
646
root -1.419979 31.834575 -6.134490 7.042331 25.540174 6.028343
Spine -7.064798 4.882374 -2.857780
Head -5.514856 -13.371640 3.179371
LeftShoulder -7.091712 15.299147 5.601128
LeftArm 28.285771 42.027533 -68.738449
LeftForeArm -1.440249 -0.000000 13.372463
LeftHand -11.195790 -0.000000 -4.301230
LeftHandThumb1 -26.253704 0.000000 33.147579
RightShoulder 10.193844 42.469746 -34.306719
RightArm 46.402382 8.812941 112.598309
RightForeArm 39.277032 -0.000000 59.729214
RightHand -8.307917 -0.000000 8.343284
RightHandThumb1 -24.326973 -0.000000 -32.862282
LeftUpLeg -3.440564 -11.995193 -1.417662
LeftLeg 2.092889 -0.000000 -0.000000
LeftFoot -13.606250 10.297395 -23.803142
LeftToeBase 8.584921 -0.000000 -0.000000
RightUpLeg 5.233058 -15.602970 -4.356251
RightLeg -3.721046 -0.000000 0.000000
RightFoot -19.004624 -20.926943 12.162551
RightToeBase 5.533254 -0.000000 -0.000000
647
root -1.411878 31.833901 -6.128042 7.061255 25.638921 6.067698
Spine -7.061942 4.842100 -2.859602
Head -5.553332 -13.371104 3.109971
LeftShoulder -7.124091 15.309327 5.554591
LeftArm 28.338917 41.998015 -68.652805
LeftForeArm -1.406483 0.000000 13.482082
LeftHand -11.174800 0.000000 -4.372422
LeftHandThumb1 -26.253704 0.000000 33.147579
RightShoulder 10.222102 42.468985 -34.286725
RightArm 46.424444 9.316466 113.051446
RightForeArm 39.346121 -0.000000 62.013323
RightHand -7.996417 -0.000000 8.720665
RightHandThumb1 -24.326973 -0.000000 -32.862282
LeftUpLeg -3.436094 -12.071398 -1.454793
LeftLeg 2.097754 -0.000000 -0.000000
LeftFoot -13.582369 10.294101 -23.754341
LeftToeBase 8.489569 -0.000000 -0.000000
RightUpLeg 5.280608 -15.669732 -4.395947
RightLeg -3.744552 -0.000000 0.000000
RightFoot -19.031637 -20.954622 12.199385
RightToeBase 5.528514 -0.000000 -0.000000
648
root -1.401885 31.832875 -6.120848 7.064584 25.691041 6.085043
Spine -7.062004 4.849216 -2.835723
Head -5.554781 -13.326956 2.971347
LeftShoulder -7.163546 15.346278 5.491763
LeftArm 28.394397 41.959457 -68.576498
LeftForeArm -1.398716 0.000000 13.583991
LeftHand -11.054652 0.000000 -4.277123
LeftHandThumb1 -26.253704 0.000000 33.147579
RightShoulder 10.240408 42.454730 -34.287630
RightArm 46.466478 9.772529 113.436798
RightForeArm 39.414539 -0.000000 64.288698
RightHand -7.778319 -0.000000 8.933389
RightHandThumb1 -24.326973 -0.000000 -32.862282
LeftUpLeg -3.414350 -12.108375 -1.485374
LeftLeg 2.095099 -0.000000 -0.000000
LeftFoot -13.606718 10.314183 -23.726793
LeftToeBase 8.605775 -0.000000 -0.000000
RightUpLeg 5.327535 -15.696987 -4.426082
RightLeg -3.769318 -0.000000 0.000000
RightFoot -19.036099 -20.961439 12.221321
RightToeBase 5.516389 -0.000000 -0.000000
649
root -1.395628 31.832985 -6.117055 7.129486 25.775950 6.134580
Spine -7.103295 4.840381 -2.873104
Head -5.587752 -13.299388 2.897322
LeftShoulder -7.181675 15.369277 5.453859
LeftArm 28.441130 41.930097 -68.498500
LeftForeArm -1.450056 -0.000000 13.672854
LeftHand -11.002649 -0.000000 -4.239050
LeftHandThumb1 -26.253704 0.000000 33.147579
RightShoulder 10.210433 42.454621 -34.282966
RightArm 46.484106 10.211507 113.811523
RightForeArm 39.402263 -0.000000 66.592000
RightHand -7.527070 -0.000000 8.813964
RightHandThumb1 -24.326973 -0.000000 -32.862282
LeftUpLeg -3.467608 -12.141552 -1.520410
LeftLeg 2.122051 -0.000000 -0.000000
LeftFoot -13.578513 10.273482 -23.716957
LeftToeBase 8.513756 -0.000000 -0.000000
RightUpLeg 5.317722 -15.730102 -4.461881
RightLeg -3.778279 -0.000000 0.000000
RightFoot -19.079026 -20.978811 12.269133
RightToeBase 5.559595 -0.000000 -0.000000
650
root -1.390771 31.831231 -6.111359 7.150692 25.868511 6.139113
Spine -7.115777 4.804996 -2.846910
Head -5.630599 -13.251610 2.811149
LeftShoulder -7.212094 15.358799 5.407513
LeftArm 28.400649 41.886379 -68.490860
LeftForeArm -1.523976 -0.000000 13.777355
LeftHand -10.952025 -0.000000 -4.350301
LeftHandThumb1 -26.253704 0.000000 33.147579
RightShoulder 10.202928 42.501064 -34.273351
RightArm 46.502249 10.630289 114.112848
RightForeArm 39.519436 -0.000000 68.793962
RightHand -7.599883 -0.000000 9.009553
RightHandThumb1 -24.326973 -0.000000 -32.862282
LeftUpLeg -3.481427 -12.209342 -1.511193
LeftLeg 2.121483 -0.000000 -0.000000
LeftFoot -13.581730 10.219751 -23.722094
LeftToeBase 8.534170 -0.000000 -0.000000
RightUpLeg 5.338333 -15.771331 -4.458088
RightLeg -3.796873 -0.000000 0.000000
RightFoot -19.088054 -21.029201 12.278562
RightToeBase 5.540422 -0.000000 -0.000000
